 http://desibbrg.org/images/66952052392581364616.gif
 
http://desibbrg.org/images/37072168086221252438.jpg
 
http://desibbrg.org/images/76615517075981392728.jpg
 
http://desibbrg.org/images/57244373246910136183.jpg
 
http://desibbrg.org/images/47870586619770919885.jpg
 
http://desibbrg.org/images/59312762612025741640.jpg

Media Info - 
General
Complete name                    : Rakhtbeej-2012-1CD HDScam Rip - Xvid - Team ICTv Exclusive.avi
Format                           : AVI
Format/Info                      : Audio Video Interleave
File size                        : 693 MiB
Duration                         : 1h 47mn
Overall bit rate                 : 898 Kbps

Video
ID                               : 0
Format                           : MPEG-4 Visual
Format profile                   : Advanced Simple@L5
Format settings, BVOP            : 1
Format settings, QPel            : Yes
Format settings, GMC             : 3 warppoints
Format settings, Matrix          : Default (H.263)
Muxing mode                      : Packed bitstream
Codec ID                         : XVID
Codec ID/Hint                    : XviD
Duration                         : 1h 47mn
Bit rate                         : 796 Kbps
Width                            : 592 pixels
Height                           : 256 pixels
Display aspect ratio             : 2.35:1
Frame rate                       : 25.000 fps
Color space                      : YUV
Chroma subsampling               : 4:2:0
Bit depth                        : 8 bits
Scan type                        : Progressive
Compression mode                 : Lossy
Bits/(Pixel*Frame)               : 0.210
Stream size                      : 614 MiB (89%)
Writing library                  : XviD 1.2.1 (UTC 2008-12-04)

Audio
ID                               : 1
Format                           : MPEG Audio
Format version                   : Version 1
Format profile                   : Layer 3
Mode                             : Joint stereo
Codec ID                         : 55
Codec ID/Hint                    : MP3
Duration                         : 1h 47mn
Bit rate mode                    : Constant
Bit rate                         : 96.0 Kbps
Channel(s)                       : 2 channels
Sampling rate                    : 32.0 KHz
Compression mode                 : Lossy
Stream size                      : 74.1 MiB (11%)
Alignment                        : Aligned on interleaves
Interleave, duration             : 160 ms (4.00 video frames)
Interleave, preload duration     : 216 ms
Title                            : Rakhtbeej-2012 Tc0 L2 2ch 48 64 DELAY 0ms
Writing library                  : LAME3.99r
Encoding settings                : -m j -V 4 -q 2 -lowpass 15.1 -b 96

Ripper : Master Mind

Seeding 24x7... Extreme Seeding...


Enjoy!
